<svg width="328" height="328" viewBox="0 0 328 328" fill="none" xmlns="http://www.w3.org/2000/svg">
<g clip-path="url(#clip0_2185_28032)">
<circle cx="164" cy="164" r="164" fill="#E5F4FF"/>
<path d="M164.004 333C240.036 333 301.673 325.408 301.673 316.044C301.673 306.679 240.036 299.087 164.004 299.087C87.9715 299.087 26.335 306.679 26.335 316.044C26.335 325.408 87.9715 333 164.004 333Z" fill="#0078CE"/>
<path d="M164.004 333C240.036 333 301.673 325.408 301.673 316.044C301.673 306.679 240.036 299.087 164.004 299.087C87.9715 299.087 26.335 306.679 26.335 316.044C26.335 325.408 87.9715 333 164.004 333Z" fill="url(#paint0_linear_2185_28032)"/>
<path d="M88.5864 150.389C86.0328 148.662 83.1576 147.465 80.1311 146.867C77.1046 146.268 73.9884 146.282 70.9674 146.907C69.8616 147.079 68.8168 147.525 67.929 148.204C65.8598 149.945 66.1829 153.183 65.6328 155.847C64.9605 159.128 62.7516 161.94 61.9571 165.178C61.4944 167.614 61.4678 170.113 61.8785 172.559C63.0418 182.207 65.3604 191.681 68.7847 200.779L59.1807 326.916C59.1807 326.916 69.0029 328.5 88.9269 330.084L91.0398 209.962L88.5864 150.389Z" fill="#FCCCB6"/>
<path d="M77.6641 223.95L90.385 275.237V201.267L84.7274 184.502L77.6641 223.95Z" fill="url(#paint1_linear_2185_28032)"/>
<path d="M244.014 151.468C246.573 149.754 249.451 148.57 252.477 147.984C255.503 147.397 258.617 147.422 261.633 148.056C262.74 148.232 263.787 148.677 264.68 149.353C266.741 151.094 266.426 154.332 266.968 157.004C267.649 160.286 269.858 163.097 270.652 166.335C271.116 168.769 271.14 171.266 270.722 173.708C269.567 183.356 267.251 192.831 263.825 201.928L273.385 326.306C273.385 326.306 262.69 328.099 243.578 329.901L241.526 211.102L244.014 151.468Z" fill="#FCCCB6"/>
<path d="M256.57 220.286L252.056 243.396L242.443 264.243L241.596 218.876L256.57 220.286Z" fill="url(#paint2_linear_2185_28032)"/>
<path d="M249.829 109.13H79.6027C75.5667 109.13 72.2949 112.392 72.2949 116.415V217.936C72.2949 221.959 75.5667 225.221 79.6027 225.221H249.829C253.865 225.221 257.137 221.959 257.137 217.936V116.415C257.137 112.392 253.865 109.13 249.829 109.13Z" fill="#0078CE"/>
<path d="M249.829 109.13H79.6027C75.5667 109.13 72.2949 112.392 72.2949 116.415V217.936C72.2949 221.959 75.5667 225.221 79.6027 225.221H249.829C253.865 225.221 257.137 221.959 257.137 217.936V116.415C257.137 112.392 253.865 109.13 249.829 109.13Z" fill="url(#paint3_linear_2185_28032)"/>
<path d="M249.829 104.473H79.6027C75.5667 104.473 72.2949 107.735 72.2949 111.758V213.279C72.2949 217.302 75.5667 220.564 79.6027 220.564H249.829C253.865 220.564 257.137 217.302 257.137 213.279V111.758C257.137 107.735 253.865 104.473 249.829 104.473Z" fill="#0078CE"/>
<path d="M88.665 152.87C91.6074 149.614 91.6073 149.614 94.9338 145.714L109.104 129.176C111.333 126.75 113.376 124.16 115.216 121.429H128.6C128.224 125.017 128.052 128.624 128.085 132.231V153.392H129.98C132.143 153.371 134.302 153.197 136.441 152.87V164.725C134.318 164.462 132.18 164.332 130.041 164.333H128.085V167.589C128.025 170.268 128.197 172.947 128.6 175.597H115.155C115.519 172.9 115.691 170.18 115.67 167.458V164.316H97.1602C92.9083 164.316 91.0486 164.377 88.665 164.568V152.87ZM115.731 145.976C115.731 143.042 115.862 139.465 116.124 136.601C114.814 138.42 113.836 139.726 112.073 141.937L102.512 153.522H115.705L115.731 145.976Z" fill="white"/>
<path d="M147.241 170.714C145.157 168.669 143.532 166.206 142.474 163.489C140.753 158.706 139.89 153.659 139.924 148.578C139.924 141.737 141.557 134.651 144.045 130.543C148.027 123.901 154.819 120.254 163.044 120.254C169.382 120.254 174.935 122.404 178.917 126.347C181.003 128.39 182.629 130.853 183.684 133.572C185.414 138.373 186.277 143.442 186.233 148.543C186.233 155.385 184.6 162.549 182.121 166.649C178.201 173.16 171.338 176.807 163.044 176.807C156.644 176.772 151.231 174.683 147.241 170.714ZM153.352 148.082C153.352 159.737 156.679 165.726 163.149 165.726C169.618 165.726 172.814 159.868 172.814 148.317C172.779 137.114 169.356 131.239 163.044 131.239C156.906 131.239 153.318 137.445 153.318 148.056L153.352 148.082Z" fill="white"/>
<path d="M189.621 152.87C192.563 149.614 192.563 149.614 195.89 145.714L210.069 129.176C212.283 126.749 214.312 124.159 216.137 121.429H229.53C229.147 125.017 228.972 128.623 229.006 132.231V153.392H230.901C233.064 153.371 235.223 153.197 237.362 152.87V164.725C235.239 164.462 233.101 164.332 230.962 164.333H229.006V167.589C228.944 170.268 229.119 172.948 229.53 175.597H216.076C216.444 172.9 216.619 170.18 216.6 167.458V164.316H198.116C193.873 164.316 192.005 164.377 189.621 164.568V152.87ZM216.687 145.976C216.687 143.042 216.818 139.465 217.08 136.601C215.77 138.42 214.792 139.726 213.029 141.937L203.468 153.522H216.661L216.687 145.976Z" fill="white"/>
<path d="M89.2939 194.669C90.3935 194.489 91.5062 194.402 92.6204 194.407C93.9721 194.305 95.3145 194.702 96.3921 195.522C96.7806 195.876 97.0872 196.31 97.2907 196.794C97.4942 197.278 97.5898 197.8 97.5708 198.324C97.5977 198.847 97.5196 199.369 97.3412 199.861C97.1628 200.353 96.8876 200.804 96.5318 201.188C95.9815 201.697 95.3334 202.09 94.6266 202.343C93.9199 202.596 93.1691 202.704 92.4196 202.659C91.9535 202.676 91.4872 202.635 91.0313 202.537V207.908H89.2852L89.2939 194.669ZM91.0401 201.127C91.5093 201.236 91.9906 201.282 92.4719 201.267C94.5674 201.267 95.8421 200.257 95.8421 198.403C95.8421 196.549 94.5848 195.791 92.6728 195.791C92.125 195.777 91.5773 195.823 91.0401 195.931V201.127Z" fill="white"/>
<path d="M100.382 203.695L98.9854 207.908H97.2393L101.797 194.512H103.875L108.458 207.908H106.608L105.176 203.695H100.382ZM104.748 202.346L103.429 198.49C103.133 197.619 102.932 196.818 102.731 196.044C102.539 196.836 102.312 197.654 102.059 198.464L100.74 202.346H104.748Z" fill="white"/>
<path d="M120.359 207.307C119.034 207.784 117.637 208.035 116.229 208.047C115.311 208.135 114.385 208.022 113.515 207.715C112.646 207.408 111.855 206.914 111.198 206.27C110.54 205.625 110.032 204.845 109.71 203.983C109.387 203.122 109.258 202.2 109.331 201.284C109.331 197.289 112.099 194.373 116.604 194.373C117.753 194.344 118.894 194.555 119.957 194.991L119.538 196.401C118.603 195.993 117.589 195.796 116.569 195.826C113.295 195.826 111.165 197.854 111.165 201.206C111.165 204.557 113.217 206.62 116.351 206.62C117.139 206.661 117.928 206.537 118.665 206.254V202.268H115.932V200.875H120.359V207.307Z" fill="white"/>
<path d="M129.962 201.623H124.724V206.454H130.547V207.908H122.986V194.512H130.25V195.965H124.741V200.196H129.98L129.962 201.623Z" fill="white"/>
<path d="M137.052 207.908V194.512H138.946L143.251 201.284C144.147 202.683 144.955 204.136 145.669 205.636C145.512 203.895 145.468 202.224 145.468 200.135V194.529H147.11V207.925H145.364L141.094 201.127C140.168 199.687 139.328 198.193 138.58 196.653H138.519C138.623 198.35 138.658 199.961 138.658 202.18V207.908H137.052Z" fill="white"/>
<path d="M161.647 201.066C161.647 205.68 158.836 208.126 155.405 208.126C151.973 208.126 149.363 205.384 149.363 201.327C149.363 197.071 151.982 194.294 155.605 194.294C159.229 194.294 161.647 197.097 161.647 201.066ZM151.222 201.284C151.222 204.148 152.777 206.715 155.509 206.715C158.242 206.715 159.814 204.191 159.814 201.145C159.814 198.49 158.417 195.704 155.527 195.704C152.637 195.704 151.222 198.35 151.222 201.284Z" fill="white"/>
<path d="M165.951 195.983H161.865V194.512H171.818V195.983H167.706V207.908H165.96L165.951 195.983Z" fill="white"/>
<path d="M177.537 194.512H184.775V195.965H179.275V200.413H184.356V201.841H179.275V207.934H177.528L177.537 194.512Z" fill="white"/>
<path d="M198.727 201.066C198.727 205.68 195.916 208.126 192.493 208.126C188.94 208.126 186.452 205.384 186.452 201.327C186.452 197.071 189.071 194.294 192.686 194.294C196.3 194.294 198.727 197.097 198.727 201.066ZM188.303 201.284C188.303 204.148 189.857 206.715 192.589 206.715C195.322 206.715 196.894 204.191 196.894 201.145C196.894 198.49 195.497 195.704 192.607 195.704C189.717 195.704 188.303 198.35 188.303 201.284Z" fill="white"/>
<path d="M202.717 194.512V202.441C202.717 205.445 204.053 206.715 205.852 206.715C207.842 206.715 209.117 205.401 209.117 202.441V194.512H210.863V202.346C210.863 206.463 208.689 208.152 205.782 208.152C203.032 208.152 200.954 206.585 200.954 202.424V194.538L202.717 194.512Z" fill="white"/>
<path d="M213.884 207.908V194.512H215.779L220.083 201.284C220.98 202.681 221.785 204.135 222.493 205.636H222.537C222.379 203.895 222.336 202.224 222.336 200.135V194.529H223.968V207.925H222.222L217.962 201.127C217.032 199.689 216.192 198.195 215.447 196.653H215.386C215.482 198.35 215.526 199.961 215.526 202.18V207.908H213.884Z" fill="white"/>
<path d="M226.98 194.686C228.203 194.503 229.437 194.41 230.674 194.407C233.162 194.407 234.943 194.991 236.113 196.079C236.759 196.697 237.262 197.448 237.59 198.278C237.917 199.109 238.059 200.001 238.008 200.892C238.057 201.848 237.912 202.803 237.58 203.701C237.249 204.599 236.738 205.42 236.078 206.115C234.821 207.368 232.743 208.047 230.132 208.047C229.078 208.039 228.026 207.97 226.98 207.838V194.686ZM228.727 206.533C229.305 206.618 229.889 206.653 230.473 206.637C234.183 206.637 236.192 204.566 236.192 200.953C236.192 197.794 234.445 195.783 230.752 195.783C230.069 195.77 229.387 195.831 228.718 195.966L228.727 206.533Z" fill="white"/>
<path d="M80.1268 148.866C80.876 149.237 81.5142 149.799 81.9778 150.493C82.3614 151.31 82.5497 152.203 82.5278 153.105L82.7898 158.719C82.9083 159.643 82.7974 160.581 82.4667 161.452C82.2905 161.882 81.9682 162.236 81.5564 162.452C81.1445 162.669 80.6693 162.734 80.2141 162.636C80.5484 163.729 80.6566 164.878 80.532 166.014C80.4075 167.149 80.0528 168.248 79.4895 169.243C79.2072 169.662 78.9866 170.119 78.8347 170.601C78.7621 171.182 78.7917 171.771 78.922 172.342C79.12 173.75 79.0144 175.184 78.6125 176.548C78.2105 177.913 77.5213 179.176 76.5908 180.254C76.3064 180.607 75.9566 180.902 75.5606 181.124C75.0412 181.345 74.4837 181.463 73.9192 181.472L71.3523 181.69C71.2254 181.732 71.0906 181.744 70.9583 181.725C70.8261 181.706 70.6999 181.658 70.5894 181.583C70.4789 181.508 70.3871 181.409 70.3211 181.293C70.2551 181.178 70.2166 181.048 70.2085 180.915C68.2595 174.752 67.3739 168.303 67.5893 161.844C67.6902 158.589 68.0817 155.35 68.7592 152.165C69.1695 150.302 69.9728 147.464 71.9722 146.707C74.5565 145.802 77.8917 147.586 80.1268 148.866Z" fill="#FCCCB6"/>
<path d="M248.738 148.866C247.989 149.237 247.35 149.799 246.887 150.493C246.503 151.31 246.315 152.204 246.337 153.105L246.075 158.719C245.956 159.643 246.067 160.581 246.398 161.452C246.574 161.882 246.896 162.236 247.308 162.453C247.72 162.669 248.195 162.734 248.651 162.636C248.317 163.729 248.208 164.877 248.331 166.012C248.454 167.148 248.807 168.247 249.366 169.243C249.655 169.66 249.879 170.117 250.03 170.601C250.104 171.182 250.071 171.772 249.934 172.342C249.74 173.75 249.848 175.184 250.252 176.548C250.655 177.912 251.344 179.175 252.274 180.254C252.558 180.607 252.908 180.903 253.304 181.124C253.823 181.345 254.381 181.463 254.945 181.473L257.539 181.725C257.665 181.767 257.8 181.778 257.932 181.76C258.065 181.741 258.191 181.693 258.301 181.618C258.412 181.543 258.504 181.444 258.57 181.328C258.636 181.213 258.674 181.083 258.682 180.95C260.631 174.787 261.517 168.338 261.302 161.879C261.202 158.624 260.807 155.384 260.123 152.199C259.721 150.337 259.25 148.004 257.268 147.247C254.657 146.298 250.973 147.586 248.738 148.866Z" fill="#FCCCB6"/>
</g>
<defs>
<linearGradient id="paint0_linear_2185_28032" x1="163.166" y1="292.446" x2="165.691" y2="364.293" gradientUnits="userSpaceOnUse">
<stop stop-opacity="0"/>
<stop offset="0.95"/>
</linearGradient>
<linearGradient id="paint1_linear_2185_28032" x1="85.4433" y1="268.622" x2="82.918" y2="168.45" gradientUnits="userSpaceOnUse">
<stop stop-opacity="0"/>
<stop offset="0.99"/>
</linearGradient>
<linearGradient id="paint2_linear_2185_28032" x1="249.847" y1="254.817" x2="248.163" y2="191.979" gradientUnits="userSpaceOnUse">
<stop stop-opacity="0"/>
<stop offset="0.95"/>
</linearGradient>
<linearGradient id="paint3_linear_2185_28032" x1="161.603" y1="274.558" x2="165.535" y2="138.176" gradientUnits="userSpaceOnUse">
<stop stop-opacity="0"/>
<stop offset="0.99"/>
</linearGradient>
<clipPath id="clip0_2185_28032">
<rect width="328" height="328" rx="164" fill="white"/>
</clipPath>
</defs>
</svg>
