<svg width="144" height="144" viewBox="0 0 144 144" fill="none" xmlns="http://www.w3.org/2000/svg">
<path d="M72 143.825C111.764 143.825 144 111.629 144 71.9124C144 32.1963 111.764 0 72 0C32.2355 0 0 32.1963 0 71.9124C0 111.629 32.2355 143.825 72 143.825Z" fill="#9DE7FF"/>
<path d="M72.0001 5.8634C35.4763 5.8634 5.86768 35.436 5.86768 71.9124C5.86768 108.389 35.4763 137.964 72.0001 137.964C108.524 137.964 138.133 108.392 138.133 71.9124C138.133 35.433 108.527 5.8634 72.0001 5.8634ZM64.82 132.176C31.4994 128.216 7.70109 98.0241 11.666 64.744C15.6308 31.4639 45.8566 7.69158 79.1803 11.6516C112.504 15.6117 136.299 45.8037 132.334 79.0808C128.369 112.358 98.1436 136.136 64.82 132.176Z" fill="url(#paint0_linear_1892_17300)"/>
<path d="M132.334 79.0808C128.369 112.367 98.1436 136.136 64.82 132.176C31.4964 128.216 7.7011 98.0241 11.666 64.744C15.6309 31.4639 45.8566 7.69159 79.1803 11.6516C112.504 15.6117 136.299 45.8037 132.334 79.0808Z" fill="#9DE7FF"/>
<path d="M72.0002 75.8063C74.1534 75.8063 75.8989 74.063 75.8989 71.9124C75.8989 69.7619 74.1534 68.0185 72.0002 68.0185C69.847 68.0185 68.1016 69.7619 68.1016 71.9124C68.1016 74.063 69.847 75.8063 72.0002 75.8063Z" fill="url(#paint1_linear_1892_17300)"/>
<path d="M71.8738 24.4188C72.2498 24.4188 72.6105 24.568 72.8764 24.8336C73.1423 25.0992 73.2917 25.4595 73.2917 25.8351V73.0009H70.4468V25.8351C70.4468 25.4595 70.5962 25.0992 70.8621 24.8336C71.128 24.568 71.4887 24.4188 71.8647 24.4188H71.8738Z" fill="#25233A"/>
<path d="M103.764 70.4721H71.723C71.023 70.4721 70.4556 71.0382 70.4556 71.7365C70.4556 72.4348 71.023 73.0009 71.723 73.0009H103.764C104.464 73.0009 105.032 72.4348 105.032 71.7365C105.032 71.0382 104.464 70.4721 103.764 70.4721Z" fill="#25233A"/>
<path d="M73.2915 127.061C73.2915 126.279 72.6567 125.645 71.8735 125.645C71.0904 125.645 70.4556 126.279 70.4556 127.061V129.055C70.4556 129.837 71.0904 130.471 71.8735 130.471C72.6567 130.471 73.2915 129.837 73.2915 129.055V127.061Z" fill="white"/>
<path d="M73.2915 127.061C73.2915 126.279 72.6567 125.645 71.8735 125.645C71.0904 125.645 70.4556 126.279 70.4556 127.061V129.055C70.4556 129.837 71.0904 130.471 71.8735 130.471C72.6567 130.471 73.2915 129.837 73.2915 129.055V127.061Z" fill="white"/>
<path d="M73.2915 14.1069C73.2915 13.3248 72.6567 12.6907 71.8735 12.6907C71.0904 12.6907 70.4556 13.3248 70.4556 14.1069V16.1005C70.4556 16.8827 71.0904 17.5167 71.8735 17.5167C72.6567 17.5167 73.2915 16.8827 73.2915 16.1005V14.1069Z" fill="white"/>
<path d="M32.5709 30.8688C32.0172 30.3157 31.1194 30.3157 30.5656 30.8688C30.0119 31.4219 30.0119 32.3186 30.5656 32.8717L31.977 34.2813C32.5308 34.8344 33.4286 34.8344 33.9823 34.2813C34.5361 33.7283 34.5361 32.8316 33.9823 32.2785L32.5709 30.8688Z" fill="white"/>
<path d="M111.771 109.971C111.217 109.418 110.319 109.418 109.765 109.971C109.212 110.524 109.212 111.42 109.765 111.974L111.177 113.383C111.73 113.936 112.628 113.936 113.182 113.383C113.736 112.83 113.736 111.933 113.182 111.38L111.771 109.971Z" fill="white"/>
<path d="M14.8721 70.7097C14.0889 70.7097 13.4541 71.3437 13.4541 72.1259C13.4541 72.9081 14.0889 73.5421 14.8721 73.5421H16.868C17.6512 73.5421 18.286 72.9081 18.286 72.1259C18.286 71.3437 17.6512 70.7097 16.868 70.7097H14.8721Z" fill="white"/>
<path d="M126.876 70.7067C126.093 70.7067 125.458 71.3407 125.458 72.1229C125.458 72.9051 126.093 73.5391 126.876 73.5391H128.872C129.655 73.5391 130.29 72.9051 130.29 72.1229C130.29 71.3407 129.655 70.7067 128.872 70.7067H126.876Z" fill="white"/>
<path d="M30.5657 111.381C30.012 111.934 30.012 112.831 30.5657 113.384C31.1195 113.937 32.0173 113.937 32.571 113.384L33.9824 111.974C34.5361 111.421 34.5361 110.525 33.9824 109.971C33.4286 109.418 32.5308 109.418 31.9771 109.971L30.5657 111.381Z" fill="white"/>
<path d="M109.765 32.2763C109.211 32.8293 109.211 33.726 109.765 34.2791C110.319 34.8322 111.216 34.8322 111.77 34.2791L113.182 32.8695C113.735 32.3164 113.735 31.4197 113.182 30.8666C112.628 30.3135 111.73 30.3135 111.176 30.8666L109.765 32.2763Z" fill="white"/>
<defs>
<linearGradient id="paint0_linear_1892_17300" x1="5.86768" y1="71.9139" x2="138.133" y2="71.9139" gradientUnits="userSpaceOnUse">
<stop stop-color="#0078CE"/>
<stop offset="1" stop-color="#0B94F5"/>
</linearGradient>
<linearGradient id="paint1_linear_1892_17300" x1="71.8467" y1="56.0241" x2="72.0989" y2="81.9313" gradientUnits="userSpaceOnUse">
<stop stop-opacity="0"/>
<stop offset="0.88" stop-opacity="0.8"/>
<stop offset="0.97"/>
</linearGradient>
</defs>
</svg>
