<svg width="328" height="328" viewBox="0 0 328 328" fill="none" xmlns="http://www.w3.org/2000/svg">
<path d="M307.287 198.647C307.287 131.148 226.245 65.0424 158.877 69.2834C81.4031 74.1575 38.4449 102.077 53.3197 165.312C66.3052 220.518 136.248 169.353 177.881 222.555C221.331 278.078 307.287 266.146 307.287 198.647Z" fill="#6FCFEE"/>
<path d="M19.3848 113.35C19.3848 113.35 -2.59119 118.05 15.0716 128.438C32.7344 138.826 65.7378 154.331 65.7378 154.331C65.7378 154.331 86.369 160.832 99.5808 145.803C112.793 130.774 122.416 145.803 122.416 145.803C122.416 145.803 129.806 157.611 135.572 152.258C141.338 146.905 135.572 140.545 135.572 140.545C135.572 140.545 126.241 128.196 138.137 116.447C150.034 104.698 144.514 100.263 139.551 100.703C134.588 101.142 19.3848 113.35 19.3848 113.35Z" fill="#D3EFFC"/>
<path d="M273.575 252.501C273.575 252.501 272.568 234.661 263.2 215.02C258.297 204.721 251.11 193.927 240.568 184.943C240.568 184.943 237.265 185.769 233.415 186.491C229.39 187.245 224.772 187.882 222.692 187.331C222.692 187.331 225.343 193.727 219.468 194.645C212.672 195.701 212.987 185.723 212.987 185.723C212.987 185.723 211.222 185.274 208.496 184.411C207.26 183.978 205.827 183.319 204.265 182.581C203.609 184.549 203.039 186.517 202.537 188.525C202.412 189.036 202.284 189.535 202.169 190.05C201.795 191.664 199.873 193.307 198.164 193.09C190.184 192.106 192.382 183.211 194.799 176.835C194.799 176.799 194.825 176.756 194.839 176.723L194.773 176.671C191.64 174.211 188.869 171.322 186.54 168.09L180.466 177.819C177.881 181.151 168.093 179.993 171.541 172.216C179.846 153.461 195.006 142.322 201.238 142.621C201.238 142.621 188.279 140.912 171.026 145.648C171.026 145.648 163.003 142.696 166.076 137.566C170.521 130.141 201.763 126.044 220.17 129.862C238.577 133.68 284.097 158.07 307.29 191.824C307.287 191.828 313.781 236.488 273.575 252.501Z" fill="#FF9880"/>
<path d="M221.534 177.064C221.652 179.143 222.004 181.201 222.584 183.201C222.866 184.196 223.194 185.18 223.568 186.153C223.755 186.635 223.949 187.117 224.158 187.59L224.237 187.777L224.326 188.016C224.389 188.175 224.444 188.337 224.49 188.502C224.58 188.832 224.641 189.17 224.673 189.512C224.796 190.892 224.405 192.269 223.575 193.379C222.772 194.471 221.611 195.245 220.295 195.567C219.015 195.892 217.662 195.748 216.48 195.16C215.351 194.598 214.463 193.647 213.977 192.484C213.923 192.348 213.921 192.197 213.971 192.059C214.021 191.921 214.119 191.807 214.248 191.737C214.377 191.668 214.526 191.648 214.669 191.681C214.811 191.715 214.936 191.8 215.02 191.919V191.919C215.533 192.68 216.282 193.251 217.152 193.543C217.972 193.8 218.855 193.774 219.658 193.471C220.049 193.324 220.415 193.12 220.744 192.864C221.044 192.599 221.304 192.292 221.515 191.952C221.909 191.274 222.096 190.495 222.053 189.712C222.046 189.518 222.021 189.325 221.981 189.135C221.96 189.038 221.935 188.943 221.905 188.849L221.866 188.705C221.866 188.656 221.823 188.577 221.8 188.515C221.613 187.99 221.443 187.459 221.279 186.927C220.96 185.858 220.704 184.77 220.514 183.67C220.115 181.471 220.063 179.223 220.36 177.008C220.376 176.858 220.449 176.719 220.564 176.62C220.679 176.521 220.827 176.47 220.979 176.477C221.13 176.485 221.273 176.549 221.378 176.658C221.483 176.768 221.543 176.913 221.544 177.064H221.534Z" fill="#233940"/>
<path d="M229.272 151.395C226.546 149.083 223.329 147.443 219.947 146.275C218.302 145.713 216.625 145.248 214.925 144.884C212.272 144.307 202.619 140.135 203.609 145.566C203.645 145.77 203.675 145.99 203.698 146.222C203.826 147.806 203.56 149.396 202.924 150.852C202.288 152.308 201.302 153.584 200.054 154.567C198.148 156.096 196.325 157.724 194.589 159.444C194.882 159.648 195.156 159.879 195.406 160.133C195.859 160.592 196.324 161.025 196.8 161.445C196.865 161.66 196.948 161.869 197.046 162.071C197.257 162.241 197.452 162.429 197.63 162.632C198.179 163.254 198.822 163.786 199.536 164.21C199.813 164.304 200.098 164.372 200.388 164.413C200.431 164.525 200.48 164.633 200.529 164.741C202.583 165.709 204.99 166.129 207.089 166.473C207.519 166.541 207.935 166.673 208.326 166.863H208.392L208.464 166.84C217.976 168.52 227.924 165.217 231.847 160.989C234.907 157.67 232.014 153.72 229.272 151.395Z" fill="#F4806F"/>
<path d="M203.39 143.047C203.255 143.047 203.084 143.047 202.92 143.07C202.755 143.078 202.589 143.094 202.425 143.12C202.095 143.155 201.766 143.208 201.441 143.277C201.113 143.349 200.785 143.392 200.457 143.487L199.473 143.759C198.817 143.946 198.194 144.212 197.554 144.435L195.701 145.281C193.273 146.537 191 148.073 188.928 149.857C184.789 153.429 181.384 157.811 178.432 162.458C178.042 163.026 177.727 163.646 177.366 164.233L176.3 166.007C175.952 166.604 175.569 167.178 175.25 167.795L174.266 169.628L173.282 171.465L172.794 172.384C172.643 172.644 172.516 172.917 172.413 173.2C172.225 173.728 172.143 174.288 172.174 174.848C172.204 175.407 172.345 175.955 172.589 176.46C172.834 176.964 173.176 177.415 173.596 177.785C174.016 178.156 174.506 178.44 175.037 178.619C175.87 178.902 176.768 178.931 177.618 178.702C178.467 178.473 179.229 177.997 179.806 177.333L181.171 175.736L183.919 172.544C183.968 172.483 184.029 172.433 184.097 172.395C184.166 172.358 184.241 172.334 184.319 172.325C184.396 172.317 184.475 172.324 184.55 172.345C184.625 172.367 184.695 172.404 184.756 172.453C184.817 172.501 184.868 172.562 184.905 172.63C184.943 172.699 184.966 172.774 184.975 172.852C184.984 172.929 184.977 173.008 184.955 173.083C184.933 173.158 184.897 173.228 184.848 173.289L182.335 176.671L181.056 178.36C180.557 179.006 179.934 179.546 179.222 179.947C178.502 180.354 177.708 180.613 176.886 180.709C176.064 180.805 175.232 180.737 174.437 180.508C173.629 180.272 172.876 179.878 172.223 179.347C171.57 178.817 171.029 178.161 170.632 177.418C170.229 176.666 169.981 175.842 169.901 174.992C169.821 174.143 169.911 173.286 170.166 172.472C170.286 172.089 170.439 171.717 170.622 171.36L171.088 170.403L172.02 168.487L172.951 166.568C173.102 166.246 173.27 165.933 173.456 165.63L173.994 164.705C174.716 163.475 175.411 162.229 176.192 161.038C176.972 159.848 177.832 158.693 178.658 157.532C178.855 157.233 179.095 156.964 179.314 156.689L180 155.859L181.368 154.219C181.804 153.652 182.352 153.163 182.827 152.638L184.323 151.09C184.572 150.831 184.834 150.586 185.11 150.355L185.92 149.64C186.465 149.171 186.986 148.673 187.56 148.236C189.836 146.453 192.313 144.943 194.94 143.736C195.616 143.47 196.288 143.205 196.967 142.956C197.669 142.759 198.351 142.519 199.063 142.362L200.129 142.136C200.483 142.057 200.851 142.031 201.212 141.975C201.575 141.925 201.941 141.895 202.307 141.883C202.493 141.874 202.679 141.874 202.865 141.883C203.052 141.883 203.235 141.883 203.449 141.903C203.595 141.923 203.728 141.997 203.823 142.11C203.917 142.224 203.966 142.368 203.96 142.515C203.954 142.663 203.893 142.803 203.789 142.908C203.686 143.013 203.547 143.075 203.399 143.083L203.39 143.047Z" fill="#233940"/>
<path d="M208.5 184.3C207.263 183.844 205.83 183.26 204.269 182.522C203.613 184.49 203.036 186.48 202.54 188.492C201.827 188.115 201.212 187.576 200.746 186.917C198.545 183.867 195.419 180.656 194.802 176.822C194.789 176.769 194.78 176.715 194.776 176.661C194.753 176.526 194.737 176.389 194.727 176.248C198.867 179.618 203.517 182.308 208.503 184.215C208.496 184.244 208.496 184.274 208.5 184.3Z" fill="#F4806F"/>
<path d="M132.804 125.703L19.0076 113.419C18.5289 113.374 18.0465 113.448 17.6037 113.636L14.6517 114.889C14.273 115.05 13.9328 115.289 13.6537 115.592C13.3747 115.894 13.1631 116.253 13.0332 116.643C12.9032 117.034 12.8578 117.448 12.8999 117.857C12.942 118.266 13.0707 118.662 13.2774 119.018C13.4926 119.388 13.7867 119.705 14.1388 119.948C14.491 120.191 14.8923 120.352 15.3143 120.422L109.946 138.856C109.946 138.856 117.509 137.976 127.792 152.192C127.792 152.192 139.092 157.243 136.976 143.648C136.966 143.664 129.839 135.621 132.804 125.703Z" fill="#6FCFEE"/>
<path d="M261.859 170.721C261.73 170.842 261.59 170.952 261.442 171.049C254.312 175.467 248.037 181.932 240.26 185.035L240.588 184.956C251.123 193.94 263.791 212.272 270.859 236.534C272.329 235.675 265.611 212.547 264.935 210.543C261.055 199.315 261.202 187.087 265.352 175.956C266.234 173.555 264.168 171.124 261.859 170.721Z" fill="#F4806F"/>
<path d="M260.885 173.082C257.457 176.578 253.55 179.569 249.28 181.965C242.833 185.593 235.649 187.717 228.265 188.179C220.881 188.64 213.489 187.426 206.64 184.628C202.083 182.747 197.821 180.218 193.986 177.12C192.068 175.578 190.251 173.914 188.548 172.138C187.697 171.25 186.874 170.335 186.078 169.392L185.782 169.038L185.635 168.861L185.474 168.648C185.253 168.36 185.055 168.055 184.88 167.736C184.53 167.098 184.283 166.408 184.149 165.692C183.876 164.252 184.056 162.763 184.664 161.428C184.818 161.097 184.994 160.777 185.192 160.471L185.52 160.028C185.625 159.89 185.704 159.792 185.848 159.644C186.314 159.082 186.868 158.598 187.488 158.211C188.735 157.427 190.196 157.051 191.667 157.135C193.138 157.226 194.546 157.765 195.701 158.68C195.846 158.794 195.984 158.914 196.118 159.041L196.475 159.369L197.095 159.956C197.502 160.353 197.961 160.69 198.407 161.061C199.309 161.753 200.262 162.376 201.258 162.924C203.252 164.027 205.397 164.831 207.624 165.312C209.879 165.793 212.184 166.001 214.489 165.929C215.645 165.896 216.799 165.803 217.946 165.65C219.092 165.491 220.228 165.272 221.351 164.994C223.58 164.447 225.728 163.61 227.74 162.504C228.712 161.971 229.619 161.327 230.443 160.586C230.623 160.399 230.84 160.212 230.997 160.028L231.23 159.759L231.424 159.477C231.662 159.112 231.826 158.704 231.909 158.276C232.025 157.345 231.824 156.403 231.338 155.6C230.805 154.66 230.131 153.808 229.338 153.074C227.644 151.517 225.742 150.202 223.686 149.168C219.472 147.038 214.988 145.493 210.356 144.576C205.698 143.615 200.956 143.126 196.2 143.116C191.433 143.095 186.675 143.522 181.988 144.392C180.815 144.611 179.649 144.855 178.488 145.124C177.323 145.389 176.192 145.704 174.985 145.999C173.746 146.332 172.466 146.486 171.183 146.455C170.513 146.427 169.85 146.302 169.215 146.085C168.576 145.859 167.971 145.543 167.421 145.147C166.34 144.352 165.484 143.289 164.938 142.063C164.418 140.84 164.209 139.507 164.328 138.183C164.328 137.855 164.413 137.544 164.453 137.225C164.495 136.909 164.563 136.596 164.656 136.291C164.745 135.986 164.804 135.671 164.918 135.375L165.246 134.493C165.356 134.2 165.485 133.914 165.63 133.637L166.04 132.797C166.345 132.259 166.67 131.731 166.985 131.197C167.065 131.061 167.196 130.963 167.348 130.923C167.501 130.884 167.663 130.907 167.798 130.987C167.934 131.067 168.032 131.197 168.072 131.35C168.111 131.503 168.088 131.665 168.008 131.8V131.8V131.823C166.778 133.817 165.837 136.022 165.679 138.259C165.6 139.356 165.793 140.455 166.24 141.46C166.703 142.438 167.41 143.279 168.294 143.903C169.169 144.513 170.205 144.848 171.272 144.868C172.403 144.873 173.53 144.716 174.617 144.402C175.749 144.11 176.933 143.746 178.117 143.474C179.301 143.202 180.489 142.913 181.682 142.677C186.469 141.716 191.335 141.208 196.216 141.158C201.109 141.097 205.996 141.529 210.802 142.447C215.604 143.392 220.357 144.809 224.788 147.065C227.052 148.181 229.15 149.606 231.02 151.3C232.007 152.198 232.848 153.243 233.513 154.399C233.869 155.023 234.133 155.695 234.297 156.394C234.479 157.137 234.512 157.91 234.392 158.667C234.26 159.428 233.981 160.155 233.569 160.809C233.464 160.963 233.362 161.137 233.241 161.271L232.88 161.704C232.644 161.98 232.408 162.193 232.168 162.439C231.21 163.323 230.152 164.094 229.016 164.735C226.811 165.98 224.448 166.92 221.99 167.529C217.108 168.808 211.994 168.927 207.057 167.877C204.572 167.34 202.181 166.44 199.959 165.207C198.846 164.585 197.783 163.878 196.78 163.091C196.301 162.672 195.796 162.288 195.337 161.838L194.652 161.182L194.36 160.897C194.274 160.816 194.186 160.739 194.094 160.664C193.352 160.064 192.445 159.706 191.493 159.638C190.54 159.574 189.59 159.809 188.777 160.31C188.369 160.557 188.005 160.87 187.698 161.235C187.629 161.31 187.514 161.445 187.439 161.563L187.226 161.848C187.095 162.048 186.978 162.256 186.875 162.472C186.469 163.343 186.341 164.319 186.511 165.266C186.593 165.739 186.752 166.195 186.98 166.617C187.093 166.829 187.222 167.032 187.367 167.224L187.475 167.375L187.613 167.546L187.892 167.874C188.642 168.783 189.422 169.668 190.233 170.527C191.852 172.246 193.58 173.859 195.406 175.355C199.057 178.353 203.114 180.818 207.457 182.676C216.229 186.373 225.908 187.35 235.242 185.481C239.899 184.55 244.394 182.938 248.581 180.695C252.779 178.44 256.636 175.599 260.035 172.259V172.259C260.149 172.159 260.296 172.106 260.447 172.111C260.598 172.116 260.742 172.178 260.848 172.285C260.955 172.392 261.017 172.536 261.021 172.687C261.026 172.839 260.972 172.986 260.872 173.099L260.885 173.082Z" fill="#233940"/>
<path d="M233.559 175.808C243.553 184.733 251.927 195.35 258.904 206.774C260.658 209.628 262.275 212.567 263.804 215.552C264.178 216.309 264.575 217.028 264.932 217.815C265.29 218.602 265.664 219.383 265.939 220.203C266.087 220.61 266.247 221.013 266.379 221.423L266.743 222.669L266.923 223.296L267.061 223.932L267.336 225.205C268.565 232.136 267.206 239.278 263.518 245.274C259.83 251.27 254.069 255.703 247.328 257.733C243.987 258.702 240.5 259.074 237.029 258.831C235.288 258.69 233.631 258.441 231.968 258.143C230.305 257.844 228.655 257.487 227.019 257.09C220.476 255.456 214.176 252.972 208.28 249.7C205.344 248.068 202.509 246.259 199.791 244.285C197.091 242.299 194.493 240.177 192.008 237.928C191.949 237.877 191.9 237.815 191.865 237.745C191.83 237.675 191.809 237.599 191.803 237.521C191.797 237.443 191.807 237.365 191.831 237.29C191.856 237.216 191.895 237.147 191.946 237.088C191.997 237.029 192.059 236.98 192.129 236.945C192.199 236.91 192.275 236.889 192.353 236.883C192.431 236.877 192.509 236.887 192.583 236.912C192.657 236.936 192.726 236.975 192.785 237.026V237.026C195.3 239.167 197.922 241.179 200.641 243.055C203.359 244.916 206.178 246.625 209.087 248.171C214.903 251.242 221.097 253.536 227.511 254.994C229.111 255.351 230.719 255.65 232.339 255.912C233.959 256.175 235.596 256.378 237.174 256.483C240.358 256.656 243.548 256.266 246.597 255.332C249.629 254.371 252.464 252.877 254.971 250.92C255.61 250.451 256.188 249.906 256.781 249.382C257.077 249.116 257.342 248.821 257.624 248.545C257.906 248.27 258.185 247.984 258.435 247.679L259.218 246.787L259.947 245.846C260.065 245.688 260.193 245.534 260.307 245.374L260.635 244.882C260.852 244.554 261.085 244.226 261.291 243.898C262.121 242.546 262.836 241.127 263.43 239.656C264.019 238.184 264.473 236.661 264.788 235.107L264.913 234.527C264.949 234.333 264.972 234.133 265.001 233.939L265.172 232.762L265.26 231.575L265.303 230.981V230.387V229.197L265.227 228.009C265.227 227.812 265.208 227.612 265.188 227.416L265.109 226.825L264.952 225.644L264.712 224.477L264.594 223.893L264.437 223.316L264.109 222.164C263.991 221.784 263.847 221.413 263.715 221.036C263.473 220.275 263.128 219.553 262.817 218.819C262.505 218.084 262.102 217.339 261.747 216.601L261.203 215.493L260.632 214.394C260.248 213.666 259.874 212.928 259.481 212.203C258.681 210.76 257.893 209.31 257.054 207.886C256.214 206.463 255.358 205.052 254.502 203.639C253.646 202.225 252.731 200.848 251.796 199.486C250.861 198.125 249.916 196.767 248.965 195.416C248.014 194.065 246.997 192.749 245.987 191.45C241.972 186.191 237.543 181.26 232.742 176.707V176.707C232.64 176.597 232.583 176.454 232.582 176.304C232.581 176.154 232.637 176.01 232.738 175.9C232.839 175.789 232.978 175.721 233.128 175.709C233.277 175.697 233.425 175.742 233.543 175.834L233.559 175.808Z" fill="#233940"/>
<path d="M318.668 212.501C313.092 200.392 305.316 189.377 296.437 179.442C287.482 169.54 277.466 160.653 266.569 152.94C265.897 152.448 265.211 151.976 264.519 151.51L262.452 150.103C261.068 149.174 259.658 148.289 258.261 147.38C256.863 146.472 255.423 145.632 253.997 144.796C252.57 143.959 251.123 143.113 249.644 142.342L247.446 141.158C246.712 140.768 245.961 140.407 245.219 140.03C243.74 139.266 242.228 138.57 240.719 137.872C239.968 137.511 239.204 137.186 238.423 136.861L236.127 135.877L233.805 134.972L232.644 134.519L231.47 134.106L229.121 133.283L226.746 132.545L225.569 132.184L224.352 131.856C223.552 131.649 222.755 131.42 221.948 131.23C218.744 130.471 215.493 129.933 212.216 129.619C208.927 129.344 205.621 129.309 202.327 129.514L199.86 129.708L197.404 130.016C196.584 130.101 195.764 130.268 194.96 130.403C194.156 130.537 193.32 130.678 192.529 130.872C189.296 131.552 186.117 132.469 183.017 133.614L181.856 134.044C181.466 134.182 181.082 134.332 180.705 134.5L178.409 135.461C176.917 136.169 175.411 136.845 173.968 137.648C168.123 140.738 162.742 144.633 157.981 149.22C155.601 151.505 153.389 153.958 151.362 156.561C149.309 159.132 147.597 161.966 145.58 164.735C144.569 166.143 143.454 167.473 142.244 168.713C140.985 170.008 139.512 171.077 137.891 171.872C136.227 172.659 134.415 173.086 132.574 173.125L131.216 173.072H130.888L130.56 173.02L129.904 172.918C129.035 172.785 128.174 172.599 127.326 172.361C124.004 171.39 120.834 169.962 117.906 168.116C115.026 166.31 112.265 164.32 109.641 162.16L105.751 158.982C104.458 157.939 103.146 156.92 101.815 155.925C99.1577 153.93 96.4364 152.025 93.6506 150.208C82.4833 142.941 70.4944 137.023 57.9347 132.578C54.8023 131.466 51.6338 130.449 48.4489 129.494C45.264 128.54 42.0398 127.704 38.8155 126.933C32.413 125.437 25.6759 124.87 19.0568 122.997C18.2237 122.767 17.4168 122.518 16.5804 122.232C15.7125 121.94 14.8727 121.57 14.0712 121.127C13.6415 120.888 13.2333 120.613 12.8511 120.304C12.4169 119.963 12.0394 119.556 11.7326 119.097C11.3574 118.543 11.1491 117.893 11.1323 117.224C11.1314 116.541 11.3385 115.874 11.726 115.312C12.3616 114.446 13.2132 113.761 14.1959 113.327C15.0431 112.934 15.9306 112.633 16.8428 112.432C17.716 112.236 18.6014 112.099 19.4931 112.022L21.9957 111.796L42.0037 109.975C48.6665 109.356 55.326 108.7 61.9822 108.007C68.6384 107.314 75.2902 106.573 81.9377 105.783C95.2348 104.229 108.545 102.605 121.882 101.247L131.889 100.263L136.894 99.8006L139.397 99.571C140.396 99.4759 141.403 99.6001 142.349 99.935C143.291 100.281 144.147 100.826 144.859 101.533C145.571 102.24 146.122 103.092 146.475 104.032C146.835 104.972 146.981 105.98 146.901 106.984C146.812 108.005 146.475 108.99 145.917 109.85C145.639 110.27 145.316 110.657 144.953 111.005L144.028 111.878C143.418 112.438 142.831 113.019 142.244 113.596C141.079 114.764 139.948 115.958 138.898 117.204C136.806 119.697 134.926 122.416 133.978 125.404C133.497 126.885 133.284 128.44 133.352 129.996C133.439 131.575 133.745 133.133 134.26 134.628C134.762 136.159 135.412 137.671 136.084 139.19L137.114 141.486L137.626 142.641L137.881 143.221L138.131 143.854C138.851 145.609 139.005 147.544 138.573 149.391C138.325 150.344 137.871 151.231 137.243 151.99C136.615 152.748 135.829 153.361 134.939 153.783C133.167 154.606 131.143 154.702 129.301 154.052C127.53 153.41 126.012 152.218 124.968 150.65C124.689 150.254 124.489 149.942 124.263 149.601C124.037 149.26 123.8 148.945 123.558 148.617C123.069 147.961 122.554 147.351 122.006 146.757C120.918 145.557 119.722 144.46 118.434 143.477C117.159 142.501 115.781 141.667 114.324 140.991C113.604 140.666 112.862 140.392 112.104 140.171C111.353 139.963 110.584 139.825 109.808 139.758C109.053 139.706 108.295 139.748 107.551 139.882C106.078 140.172 104.736 140.922 103.717 142.024C103.592 142.165 103.451 142.293 103.336 142.444L102.992 142.9L102.238 143.907C98.1436 149.511 92.3505 153.644 85.7195 155.692C79.0869 157.735 71.964 157.522 65.4655 155.085L65.3901 155.052L11.0635 127.592C10.9225 127.521 10.8155 127.397 10.766 127.247C10.7165 127.098 10.7285 126.934 10.7994 126.793C10.8703 126.652 10.9943 126.545 11.1441 126.496C11.2939 126.446 11.4572 126.458 11.5981 126.529L66.0986 153.642L66.0199 153.609C72.1892 155.89 78.9409 156.061 85.2177 154.094C91.4827 152.127 96.9456 148.191 100.794 142.87C101.044 142.542 101.27 142.237 101.542 141.863L101.959 141.322C102.097 141.142 102.264 140.994 102.418 140.81C103.69 139.432 105.365 138.491 107.204 138.121C108.107 137.952 109.028 137.897 109.946 137.957C110.843 138.03 111.731 138.186 112.599 138.423C113.449 138.665 114.281 138.968 115.089 139.328C116.676 140.054 118.178 140.953 119.569 142.008C120.954 143.05 122.24 144.216 123.413 145.491C124.004 146.124 124.558 146.803 125.086 147.479C125.348 147.823 125.601 148.177 125.85 148.532C126.1 148.886 126.346 149.279 126.549 149.565C127.367 150.8 128.562 151.738 129.957 152.238C131.313 152.712 132.801 152.638 134.103 152.031C134.729 151.73 135.282 151.294 135.723 150.756C136.163 150.218 136.48 149.589 136.651 148.915C136.967 147.472 136.826 145.965 136.248 144.605L136.035 144.071L135.782 143.503L135.267 142.352L134.224 140.056C133.535 138.518 132.85 136.953 132.299 135.303C131.716 133.63 131.367 131.884 131.262 130.114C131.177 128.315 131.414 126.514 131.961 124.797C132.5 123.116 133.248 121.51 134.188 120.015C135.104 118.552 136.124 117.155 137.239 115.836C138.331 114.524 139.498 113.272 140.692 112.061C141.293 111.461 141.896 110.861 142.516 110.283L142.979 109.847L143.208 109.627C143.29 109.552 143.362 109.483 143.415 109.427C143.655 109.194 143.87 108.936 144.054 108.657C144.407 108.093 144.621 107.453 144.678 106.79C144.735 106.128 144.634 105.461 144.382 104.845C144.143 104.212 143.77 103.638 143.289 103.162C142.808 102.686 142.23 102.32 141.594 102.087C140.957 101.865 140.278 101.787 139.607 101.857L137.107 102.097L132.112 102.579L122.128 103.605C108.817 105.012 95.5366 106.679 82.2296 108.283C68.9227 109.887 55.5927 111.372 42.2399 112.576L22.2319 114.397L19.7292 114.623C18.9568 114.69 18.1898 114.808 17.4332 114.977C16.7091 115.136 16.0042 115.372 15.3307 115.682C14.7715 115.92 14.2793 116.292 13.8974 116.765C13.8001 116.891 13.7451 117.045 13.7399 117.204C13.7528 117.376 13.8142 117.541 13.9171 117.68C14.3056 118.179 14.7995 118.587 15.3635 118.874C16.0291 119.239 16.7262 119.545 17.4463 119.786C18.1909 120.038 18.9847 120.287 19.7686 120.501C26.0695 122.278 32.7672 122.849 39.4125 124.394C42.6925 125.181 45.9725 126.034 49.1967 126.995C52.421 127.956 55.6354 129.006 58.8104 130.147C71.5272 134.702 83.6601 140.747 94.956 148.154C97.7746 150.009 100.532 151.954 103.228 153.989C104.575 155.006 105.904 156.047 107.213 157.112L111.094 160.303C113.633 162.41 116.305 164.352 119.094 166.116C121.835 167.859 124.805 169.213 127.92 170.137C128.684 170.355 129.461 170.526 130.246 170.649L130.823 170.74L131.111 170.786H131.4L132.551 170.839C134.068 170.811 135.562 170.465 136.937 169.822C138.333 169.142 139.601 168.227 140.686 167.116C141.818 165.961 142.862 164.724 143.808 163.413C144.792 162.101 145.707 160.707 146.659 159.323C147.128 158.631 147.643 157.935 148.118 157.24C148.594 156.545 149.129 155.872 149.66 155.206C151.759 152.53 154.049 150.009 156.512 147.662C161.43 142.958 166.985 138.968 173.013 135.808C174.503 134.992 176.054 134.296 177.605 133.575L179.957 132.591C180.348 132.42 180.741 132.263 181.145 132.128L182.342 131.692C185.533 130.526 188.805 129.595 192.133 128.907C192.959 128.71 193.799 128.579 194.635 128.435C195.472 128.291 196.308 128.13 197.151 128.045L199.68 127.74L202.222 127.549C205.61 127.351 209.009 127.401 212.39 127.697C215.769 128.032 219.122 128.6 222.423 129.396C223.247 129.596 224.063 129.829 224.877 130.052L226.104 130.38L227.314 130.757L229.734 131.518L232.122 132.364L233.316 132.791L234.494 133.253L236.849 134.182L239.171 135.185C239.945 135.513 240.722 135.841 241.467 136.218C242.996 136.933 244.524 137.642 246.016 138.423C246.768 138.806 247.525 139.177 248.266 139.574L250.487 140.778C256.388 144.017 262.085 147.616 267.543 151.556C278.485 159.408 288.529 168.439 297.496 178.488C301.965 183.521 306.096 188.844 309.862 194.422C313.637 200.002 316.941 205.887 319.738 212.016C319.794 212.158 319.794 212.316 319.737 212.457C319.68 212.599 319.571 212.713 319.433 212.776C319.294 212.839 319.136 212.847 318.992 212.797C318.848 212.747 318.728 212.643 318.659 212.508L318.668 212.501Z" fill="#233940"/>
</svg>
