<svg width="328" height="328" viewBox="0 0 328 328" fill="none" xmlns="http://www.w3.org/2000/svg">
<path d="M235.727 44.8878H92.6534C86.6686 44.8878 81.8169 49.7395 81.8169 55.7243V273.201C81.8169 279.186 86.6686 284.038 92.6534 284.038H235.727C241.711 284.038 246.563 279.186 246.563 273.201V55.7243C246.563 49.7395 241.711 44.8878 235.727 44.8878Z" fill="#2BC5F4"/>
<path d="M235.726 285.475H92.6531C89.3991 285.471 86.2795 284.177 83.9785 281.876C81.6776 279.575 80.3833 276.455 80.3795 273.201V55.7245C80.3833 52.4705 81.6776 49.3509 83.9785 47.0499C86.2795 44.749 89.3991 43.4547 92.6531 43.4509H235.726C238.98 43.4547 242.1 44.749 244.401 47.0499C246.702 49.3509 247.996 52.4705 248 55.7245V273.201C247.996 276.455 246.702 279.575 244.401 281.876C242.1 284.177 238.98 285.471 235.726 285.475V285.475ZM92.6531 46.3253C90.1603 46.3253 87.7696 47.3155 86.0068 49.0782C84.2441 50.841 83.2539 53.2317 83.2539 55.7245V273.201C83.2539 275.694 84.2441 278.085 86.0068 279.848C87.7696 281.61 90.1603 282.601 92.6531 282.601H235.726C238.218 282.597 240.607 281.605 242.368 279.844C244.13 278.082 245.122 275.693 245.126 273.201V55.7245C245.122 53.2329 244.13 50.8443 242.368 49.0824C240.607 47.3206 238.218 46.3291 235.726 46.3253H92.6531Z" fill="#093F68"/>
<path d="M246.563 68.6162H81.8169V255.38H246.563V68.6162Z" fill="white"/>
<path d="M246.563 256.832H81.8167C81.4355 256.832 81.07 256.68 80.8005 256.411C80.5309 256.141 80.3795 255.776 80.3795 255.394V68.5586C80.3795 68.1775 80.5309 67.8119 80.8005 67.5424C81.07 67.2729 81.4355 67.1214 81.8167 67.1214H246.563C246.944 67.1214 247.31 67.2729 247.579 67.5424C247.849 67.8119 248 68.1775 248 68.5586V255.394C248 255.776 247.849 256.141 247.579 256.411C247.31 256.68 246.944 256.832 246.563 256.832ZM83.2539 253.957H245.126V69.9958H83.2539V253.957Z" fill="#093F68"/>
<path d="M178.77 58.1102H160.086C159.705 58.1102 159.34 57.9588 159.07 57.6893C158.801 57.4198 158.649 57.0542 158.649 56.673C158.649 56.2919 158.801 55.9263 159.07 55.6568C159.34 55.3873 159.705 55.2358 160.086 55.2358H178.77C179.151 55.2358 179.517 55.3873 179.786 55.6568C180.056 55.9263 180.207 56.2919 180.207 56.673C180.207 57.0542 180.056 57.4198 179.786 57.6893C179.517 57.9588 179.151 58.1102 178.77 58.1102Z" fill="#093F68"/>
<path d="M153.26 58.1102H149.624C149.243 58.1102 148.877 57.9588 148.607 57.6893C148.338 57.4198 148.187 57.0542 148.187 56.673C148.187 56.2919 148.338 55.9263 148.607 55.6568C148.877 55.3873 149.243 55.2358 149.624 55.2358H153.26C153.641 55.2358 154.007 55.3873 154.276 55.6568C154.546 55.9263 154.697 56.2919 154.697 56.673C154.697 57.0542 154.546 57.4198 154.276 57.6893C154.007 57.9588 153.641 58.1102 153.26 58.1102Z" fill="#093F68"/>
<path d="M164.182 278.131C162.456 278.131 160.769 277.619 159.334 276.66C157.899 275.701 156.781 274.337 156.121 272.742C155.461 271.147 155.29 269.393 155.627 267.7C155.965 266.007 156.797 264.453 158.019 263.233C159.24 262.014 160.796 261.184 162.489 260.849C164.182 260.514 165.937 260.689 167.531 261.352C169.125 262.014 170.486 263.134 171.443 264.571C172.4 266.007 172.909 267.696 172.906 269.422C172.902 271.733 171.982 273.948 170.346 275.581C168.71 277.214 166.494 278.131 164.182 278.131V278.131ZM164.182 263.572C163.026 263.572 161.895 263.915 160.933 264.558C159.971 265.201 159.221 266.114 158.778 267.183C158.336 268.252 158.22 269.428 158.445 270.563C158.671 271.697 159.228 272.74 160.046 273.558C160.864 274.376 161.907 274.933 163.041 275.159C164.176 275.384 165.352 275.268 166.421 274.826C167.49 274.383 168.403 273.633 169.046 272.671C169.689 271.709 170.032 270.578 170.032 269.422C170.017 267.88 169.394 266.407 168.298 265.323C167.203 264.238 165.724 263.63 164.182 263.63V263.572Z" fill="#093F68"/>
<path d="M149.825 111.143V147.432H113.536V111.143H149.825ZM142.538 140.16V118.472H120.794V140.217L142.538 140.16Z" fill="#093F68"/>
<path d="M178.986 111.129H215.275V147.418H178.986V111.129ZM186.258 118.401V140.146H208.003V118.473L186.258 118.401Z" fill="#093F68"/>
<path d="M149.81 212.882H113.521V176.593H149.81V212.882ZM120.808 183.851V205.595H142.553V183.851H120.808Z" fill="#093F68"/>
<path d="M178.943 176.564H200.745V162.048H208.003V154.791H215.275V169.263H208.017V183.851H200.831V191.137H208.017C208.017 193.552 208.017 195.981 208.017 198.395H207.787H193.415V183.88H178.943C178.943 181.451 178.943 179.022 178.943 176.593V176.564Z" fill="#093F68"/>
<path d="M164.398 154.704H157.212V140.203H164.398V132.945H157.212V111.129H171.584V118.315H164.398V125.501H171.584V147.317H164.398V154.604V154.704Z" fill="#093F68"/>
<path d="M164.398 162.005C164.398 166.604 164.398 171.203 164.398 175.802C164.398 176.047 164.398 176.291 164.398 176.535H157.212V169.349H135.338V162.034H128.051V154.848H142.567V162.034H164.398V162.005Z" fill="#093F68"/>
<path d="M193.487 198.352V212.868H164.398V205.682H186.2V198.381H193.487V198.352Z" fill="#093F68"/>
<path d="M164.398 205.639H157.212V183.836H164.398V191.109H171.685V198.395H164.398V205.668V205.639Z" fill="#093F68"/>
<path d="M193.459 154.776V169.249H186.273V162.063H179.015V154.877L193.459 154.776Z" fill="#093F68"/>
<path d="M164.398 183.836C164.398 181.393 164.398 178.964 164.398 176.521H171.67V183.808H164.398V183.836Z" fill="#093F68"/>
<path d="M171.685 176.564V169.378H178.943V176.564H171.685Z" fill="#093F68"/>
<path d="M128.037 161.991V169.177H120.851V161.991H128.037Z" fill="#093F68"/>
<path d="M164.398 162.02C164.398 159.576 164.398 157.147 164.398 154.704H171.584V161.991H164.398V162.02Z" fill="#093F68"/>
<path d="M208.017 183.837H215.203V191.094H208.017V183.808V183.837Z" fill="#093F68"/>
<path d="M120.779 162.005H113.593V154.819H120.779V162.005Z" fill="#093F68"/>
<path d="M208.046 205.639C208.046 203.21 208.046 200.766 208.046 198.338H215.232V205.61H208.046V205.639Z" fill="#093F68"/>
<path d="M208.031 205.624V212.81H200.845V205.624H208.031Z" fill="#093F68"/>
<path d="M135.281 125.659V132.845H128.095V125.659H135.281Z" fill="#093F68"/>
<path d="M200.717 132.845H193.531V125.659H200.717V132.845Z" fill="#093F68"/>
<path d="M128.08 191.123H135.266V198.309H128.08V191.123Z" fill="#093F68"/>
<path d="M175.307 192.618C178.156 192.618 180.466 190.308 180.466 187.458C180.466 184.608 178.156 182.298 175.307 182.298C172.457 182.298 170.147 184.608 170.147 187.458C170.147 190.308 172.457 192.618 175.307 192.618Z" fill="#093F68"/>
<path d="M186.229 198.381H178.943V191.094H186.229V198.381Z" fill="#093F68"/>
<path d="M100.989 131.12C100.608 131.12 100.242 130.969 99.9726 130.699C99.7031 130.43 99.5517 130.064 99.5517 129.683V101.226C99.5517 100.845 99.7031 100.48 99.9726 100.21C100.242 99.9405 100.608 99.7891 100.989 99.7891H128.166C128.547 99.7891 128.913 99.9405 129.183 100.21C129.452 100.48 129.604 100.845 129.604 101.226C129.604 101.607 129.452 101.973 129.183 102.243C128.913 102.512 128.547 102.664 128.166 102.664H102.426V129.683C102.426 130.064 102.275 130.43 102.005 130.699C101.736 130.969 101.37 131.12 100.989 131.12Z" fill="#DFEAEF"/>
<path d="M227.807 131.12C227.426 131.12 227.061 130.969 226.791 130.699C226.522 130.43 226.37 130.064 226.37 129.683V102.664H200.63C200.249 102.664 199.883 102.512 199.614 102.243C199.344 101.973 199.193 101.607 199.193 101.226C199.193 100.845 199.344 100.48 199.614 100.21C199.883 99.9405 200.249 99.7891 200.63 99.7891H227.807C228.189 99.7891 228.554 99.9405 228.824 100.21C229.093 100.48 229.245 100.845 229.245 101.226V129.683C229.245 130.064 229.093 130.43 228.824 130.699C228.554 130.969 228.189 131.12 227.807 131.12Z" fill="#DFEAEF"/>
<path d="M128.166 224.236H100.989C100.608 224.236 100.242 224.085 99.9726 223.815C99.7031 223.546 99.5517 223.18 99.5517 222.799V194.328C99.5517 193.947 99.7031 193.581 99.9726 193.312C100.242 193.042 100.608 192.891 100.989 192.891C101.37 192.891 101.736 193.042 102.005 193.312C102.275 193.581 102.426 193.947 102.426 194.328V221.362H128.166C128.547 221.362 128.913 221.513 129.183 221.783C129.452 222.052 129.604 222.418 129.604 222.799C129.604 223.18 129.452 223.546 129.183 223.815C128.913 224.085 128.547 224.236 128.166 224.236Z" fill="#DFEAEF"/>
<path d="M227.807 224.236H200.63C200.249 224.236 199.883 224.085 199.614 223.815C199.344 223.546 199.193 223.18 199.193 222.799C199.193 222.418 199.344 222.052 199.614 221.783C199.883 221.513 200.249 221.362 200.63 221.362H226.37V194.328C226.37 193.947 226.522 193.581 226.791 193.312C227.061 193.042 227.426 192.891 227.807 192.891C228.189 192.891 228.554 193.042 228.824 193.312C229.093 193.581 229.245 193.947 229.245 194.328V222.799C229.245 223.18 229.093 223.546 228.824 223.815C228.554 224.085 228.189 224.236 227.807 224.236Z" fill="#DFEAEF"/>
</svg>
